<?xml version="1.0" encoding="utf-8"?>
<!-- Generator: Adobe Illustrator 20.0.0, SVG Export Plug-In . SVG Version: 6.00 Build 0)  -->
<svg version="1.1" xmlns="http://www.w3.org/2000/svg" xmlns:xlink="http://www.w3.org/1999/xlink" x="0px" y="0px"
	 viewBox="0 0 612 792" style="enable-background:new 0 0 612 792;" xml:space="preserve">
<style type="text/css">
	.st0{fill:#EFCAAB;}
	.st1{fill:#EFCAB0;}
	.st2{fill:#603913;}
	.st3{fill:#56304F;}
	.st4{fill:#FFFFFF;}
	.st5{fill:#FEFFFF;}
	.st6{fill:#3C2415;}
	.st7{fill:#DF73AD;}
	.st8{display:none;fill:#8B5E3C;stroke:#000000;stroke-width:0.25;stroke-linecap:round;stroke-miterlimit:10;}
	.st9{fill:#B3B3B3;}
	.st10{fill:#D6D6D6;}
	.st11{fill:#365FAC;}
	.st12{fill:#396FB7;}
	.st13{fill:#3A6FB7;}
	.st14{fill:#EFCAB1;}
	.st15{fill:#E676AE;}
	.st16{fill:#AF298F;}
	.st17{fill:#E43193;}
	.st18{fill:#754742;}
	.st19{display:none;stroke:#000000;stroke-linecap:round;stroke-miterlimit:10;}
	.st20{display:none;fill:#3C2415;stroke:#000000;stroke-linecap:round;stroke-miterlimit:10;}
	.st21{display:none;fill:#E6E7E8;stroke:#000000;stroke-width:0.25;stroke-miterlimit:10;}
	.st22{fill:#754C29;}
	.st23{fill:#6D472A;stroke:#F1F2F2;stroke-width:0.25;stroke-miterlimit:10;}
	.st24{fill:#F8E3D6;}
	.st25{fill:#E8C3A7;}
</style>
<g id="face">
	<path class="st0" d="M169.4,222.5c0.1,1,0.5,8.3,0.6,9.5c0,0.1,0,0.3,0,0.3c0,0.4,0.1,1.2,0.2,1.9c0,0.1,0.1,0.4,0.1,0.8
		c0.1,0.6,0.2,1,0.2,1.1c0.2,1,0.2,1.3,0.3,1.8c0,0,0,0.3,0.1,0.6c0.2,1.4,2.4,10.2,3,12.8c0.1,0.2,0.1,0.5,0.2,0.7
		c0,0,0.5,2.1,0.8,3.6c0.7,3.3,1.5,6.7,1.5,6.7c1.1,3.8,1.2,4.9,1.2,5l0,0c0.1,0.7,0.6,1.1,1,1.5c0,0,0.3,0.3,0.7,1
		c0.7,1,0.7,2.1,0.7,2.8c0,0.9,0.1,3.3-1.7,4.7c-1,0.8-2.5,1.2-3.8,0.8c-0.8-0.2-1.4-0.8-1.8-1.2c-2.8-2.8-4.2-4.2-4.6-4.8
		c-2-2.9-1-3.2-3.2-7.3c-1.1-2-2.1-3.8-4-5.7c-1.6-1.5-2.1-1.4-3.2-2.8c-1.3-1.7-1.4-2.8-2.4-5c-0.9-1.9-1.3-2.1-3.2-5
		c-2.4-3.7-3.8-5.8-4.8-8.9c-1.2-3.4-1.3-6.2-1.4-7.9c-0.1-1.7-0.2-4.5,0.6-7.9c0.7-2.8,1.2-4.9,3-6.9c1.9-2,4.2-2.7,6.1-3.2
		c1.8-0.5,4-1,6.5-0.2c3.2,1.1,4.8,3.8,5.6,5.1C169,218.9,169.3,221.2,169.4,222.5z"/>
	<path class="st1" d="M171.1,239.7c1.3,3.8,7,32.2,9.6,38.4c2.8,6.9,5.4,13.2,9.7,20.5c4.7,8,9.1,13.3,14.8,19.9
		c8.6,10.1,16,16.8,18.2,18.7c5.5,4.9,10.9,9.7,19.3,14.8c6.5,3.9,11.2,6.7,18.2,8.5c10.1,2.6,18.1,1.4,27.8,0
		c8.1-1.2,11.5-2.7,14.2-4.5c2-1.3,3.3-2.7,8-8.5c7-8.8,10.5-13.2,13.1-17.6c3-5.2,2.3-5.2,7.4-15.9c3.8-7.9,3.6-6.6,9.1-17.6
		c4.2-8.5,7.2-14.9,9.2-19.6c0.7-1.6,1.2-2.7,2.1-4.8c4.8-11,7.3-16.5,8.5-21c0.8-2.8,1.5-5.8,2.8-11.9c2.2-9.6,2.6-11.9,2.8-14.8
		c0.4-4.7,0.2-9.5,0.2-10c0-0.6-0.1-1.9-0.2-3.6c-0.4-5.6-0.6-10.5-2.3-14.2c-1.5-3.3-2.9-3.9-7.4-9.1c-6.7-7.7-6.2-9-11.4-14.8
		c-5.2-5.9-10-9.4-14.5-12.6c-6.2-4.5-7.1-4.2-19.1-11.7c-10-6.3-8.7-6-14.8-9.6c-9.7-5.6-11.7-5.4-20.4-10.9
		c-6-3.7-5.6-4.1-11.7-7.8c-2.2-1.3-7.7-4.5-15.2-7.8c-1.9-0.8-6.5-2.8-12.6-4.8c-5.1-1.6-7.4-2-9.6-2.2c-4-0.3-7.1-0.5-9.6,1.3
		c-2.5,1.8-2.5,4.2-4.8,10.9c-2,5.7-2.5,5.2-4.8,11.3c-2.2,5.8-2.1,7.1-4.8,16.5c-1.3,4.7-3.3,11.6-6.5,20c-2.6,6.9-5,12.1-6.1,14.3
		c-2.9,6.2-5.5,10.7-8.3,15.7c-2.7,4.8-6.8,11.5-7.7,13c0,0.1-0.5,0.8-1.4,2.3c-0.7,1.2-0.8,1.3-0.9,1.4c-0.9,1.4-1.4,2.2-2,2.7
		c-1.2,1.1-2.7,1.8-2.7,1.8c0,0,0,0,0,0"/>
	<polygon class="st2" points="194.8,188.2 198.9,185.7 204,181.5 208.2,178.4 212.3,176.5 216.4,176.5 221.8,176.5 228.8,176.5 
		233.9,176.5 239.6,176.5 246,176.5 251.1,176.5 251.1,172.6 251.1,168.8 247.6,166.9 244.1,166.9 239.9,166.9 233.3,165.7 
		229.1,166.9 225.3,167.9 220.2,168.8 216.4,170.1 211.7,171.4 208.2,174.2 202.1,178.7 198.9,182.5 	"/>
	<polygon class="st2" points="283.5,169.2 283.5,176.9 286.7,176.9 292.1,176.9 297.5,176.9 302.6,176.9 309.2,176.9 317.5,176.9 
		322,176.9 325.8,178.4 329.9,181.5 333.7,184.1 341.3,190.1 335,181.2 331.2,176.9 325.4,172.3 321,170.7 316.5,169.2 312.4,169.2 
		308.9,167.2 303.2,167.2 296.5,167.2 290.5,167.2 287,167.2 	"/>
	<path class="st3" d="M188,260.9c12.9-0.3,45.1,0.1,45.2,0.1c0-0.2,0,0,0,0c0-0.1,5.7-0.2,22.4-0.4c0.7-0.2,3-1,4.5-3.5
		c1.7-2.7,1.3-5.4,1.2-6c0.1-12.3,0.1-21-0.2-24.4c0-0.5-0.2-2.4,0.6-4.6c0.3-0.9,0.9-2.4,2.3-3.5c0.6-0.5,1.3-0.7,5.4-1
		c5.4-0.3,6.3,0,6.9,0.6c0.7,0.6,0.9,1.3,1.3,2.8c0.7,2.4,0.8,4.4,0.7,5.7c0,1.6,0,4,0,7c0,8.5,0.2,7.5,0.1,10
		c-0.1,2.5-0.2,4.4,0,7.4c0.2,2.6,0.5,3.6,0.9,4.6c0.4,0.9,1.4,3,3.9,4.2c2.2,1.1,4.3,0.9,5,0.8c19,0.2,38,0.4,57.1,0.6
		c3.2-1.5,3.5-1.7,3.5-1.7c1-0.8,2-2.5,1.5-6.9c-0.3-9.9-0.4-17.8-0.5-24c-0.1-12.3,0.2-17.9,0.6-19.6c0.1-0.3-0.1-6.9-1.7-8.5
		c-2.2-2.2-5.3-2-5.8-1.9c-6.4-0.2-11.6-0.2-15.2-0.2c-5.1,0-6.4,0.1-9.8,0c-2.4-0.1-4.8-0.3-9-0.3c-1.1,0-0.9,0-3.5,0
		c-8.6,0-9.8-0.1-12.2,0.2c-1.4,0.2-3.5,0.6-6,1.5c-2,1.2-3.3,2.5-4.1,3.4c-1.1,1.2-1.4,1.9-2.7,3.1c-0.6,0.6-2,1.9-3.5,2.7
		c-4.5,2.5-9.9,0.5-11.2,0c-2.3-0.9-4-2.1-5.4-3.1c-2.2-1.6-2.3-2.3-5.4-4.6c-2.3-1.7-3.5-2.4-4.9-2.9c-1.3-0.4-2.5-0.6-3.2-0.6
		c-0.5,0-1.4,0-2.5,0.1c-18.7,0.5-31.7,0.1-39.2,0.3c0,0-3.8,0.1-7.8,0.1c-2.5,0-2.3,0-3.7,0c-9.5,0.1-11.2,1.4-11.9,2
		c-1,0.9-1.5,2-2,2.8c-1.3,2.7-1.3,5.3-1.2,6.6l-0.1,27c-0.1,5.5-0.3,9.9-0.5,12.7c-0.3,5.1-0.4,7.2,0.9,8.9
		C181.3,261,185.9,260.9,188,260.9z"/>
	<path class="st4" d="M287.4,206.5c0.5-0.4,1.2-0.9,2.2-1.4c0.6-0.4,1.6-0.9,2.6-1.3c1.4-0.5,2.6-0.6,5.1-0.7c1.3,0,1.5,0,4,0
		c2,0,3.3,0,4.1-0.1c6.1-0.1,10.7,0.3,17.8,0.1c4.7-0.1,8.2-0.1,15.4,0.1c0.7,0,3.2,0.1,5.4,1.6c0.3,0.2,0.7,0.5,1.1,0.9
		c0.9,1.1,0.9,2.3,0.9,2.9c0.1,4.5-0.9,31.9-0.9,34.6c0,0.1,0,1.4,0,3.2c0,0.5,0,1.1,0,1.9c-0.1,2.9-0.3,3.6-0.8,4.2
		c-1.2,1.6-3.6,1.6-4.6,1.5c-13.8,0-27.7,0-41.6,0c-0.5,0-2.5,0.4-5,0c-1.3-0.2-3.7-0.7-5.8-2.7c-1.7-1.6-2.3-3.4-2.7-4.6
		c-0.6-1.9-0.8-3.5-0.8-4.6c-0.5-8.1-0.5-16.8,0-25.8c0.1-0.9-0.5-3,0.4-5.4C285.1,208.7,286.4,207.4,287.4,206.5z"/>
	<path class="st5" d="M183.8,218.4c-0.3,3.3-0.3,14.2,0.1,28.9c-0.1,0.7-0.2,2.8,1.2,4.9c0.2,0.4,1,1.5,2.5,2.4
		c1.8,1.1,3.5,1.1,4.2,1.1c4.2,0.1,8.3,0.7,12.4,0.5c4.3-0.1,8.6,0,13,0c8,0,12-0.1,13.9-0.1c3.7-0.1,8.9-0.1,15.1-0.3
		c1,0.1,2.6,0.2,4-0.6c2.6-1.6,2.9-5.4,3.1-7.9c1.2-16.3,0.8-23.2,0-31.6c-0.2-1.7-0.5-4.8-2.3-8.2c-0.2-0.4-0.7-1.4-1.3-2.1
		c-3.1-4-10.3-2.8-25.5-2.6c-2.1,0-4.3,0-8.6,0c-7.8,0-10.3-0.1-14.6,0.2c-7.1,0.4-10.8,1.1-13.2,3.3c-1.6,1.5-2.4,3.1-2.4,3.1
		c-0.3,0.6-0.6,1.5-1.2,5C184,216.4,183.8,217.9,183.8,218.4z"/>
	<path class="st6" d="M259.6,279.6c0.1,0,0.2,0,0.6,0.2c0.4,0.2,0.9,0.4,1.3,0.6c0.7,0.4,2.9,1.4,5,2c2,0.6,3.7,0.7,4.6,0.7
		c1.6,0.1,3.6,0.1,5.6-0.7c0.4-0.1,0.6-0.3,1.1-0.5c1.8-0.9,3-1.8,3.6-2.2c0.6-0.4,5.1-3.7,5.6-3.2c0.3,0.3-1.2,2.4-2.6,3.7
		c-0.9,0.8-1.7,1.4-2.1,1.7c-0.8,0.6-1.5,0.9-2.4,1.5c-1.5,0.8-2.2,1.2-3,1.5c-1.4,0.5-2.6,0.7-3.7,0.8c-0.7,0.1-1.7,0.2-3.1,0.2
		c-1.6-0.1-2.8-0.3-3.7-0.5c-0.8-0.2-1.2-0.3-1.8-0.5c-1-0.4-1.6-1-2.3-1.5c-0.5-0.4-1-0.8-1.5-1.5
		C260,280.9,259.4,279.8,259.6,279.6z"/>
	<path class="st3" d="M168.9,220.7c-0.3-1.2-0.7-2.2-0.7-2.2c-0.6-1.4-0.9-1.7-0.8-2.1c0.3-0.9,2.7-0.2,4.7-0.7
		c4.9-1.4,6.3-11.1,7-10.9c0.2,0,0.1,0.5,0.2,2.2c0.1,1.2,0.2,1.7,0.2,2.7c0.1,3.5,1.8,24.9,0.4,25.1c-0.5,0.1-0.6-2.6-3.1-4.6
		c-0.6-0.5-1.7-1.4-3.4-1.8c-2-0.5-3,0.2-3.7-0.6c-0.3-0.3-0.3-0.6-0.3-2.9C169.2,221.8,169.1,221.2,168.9,220.7z"/>
	<path class="st3" d="M349.5,234.6c1.1-1.3,2.2-2.6,3.3-3.9c0.8-0.6,1.6-1.3,2.6-1.9c0.7-0.5,1.4-0.9,2.1-1.3
		c-0.4-4.4-0.8-8.7-1.2-13.1l-2.3-3.6l-2.5-3.8c-0.8-1.9-1.6-3.7-2.4-5.6c-0.3,1.5-0.6,3-0.9,4.5L349.5,234.6z"/>
	<path class="st7" d="M254.2,307.9c0.8-0.1,1.7-0.3,2.9-0.4c0.6-0.1,0.5,0,3.9-0.1c1.9-0.1,1.8,0,1.9,0c1.8,0,2.9,0,4.3,0.2
		c0.7,0.1,1.7,0.2,3.1,0.6c0.3,0.1,0.8,0.2,1.7,0.5c0.9,0.3,1.6,0.5,2.3,0.7c1.2,0.4,1.9,0.5,2.2,0.5c0.6-0.1,0.6-0.5,2.1-1.1
		c0.1,0,0.5-0.2,0.9-0.4c0.1-0.1,0.5-0.2,1.4-0.5c0.5-0.2,1.1-0.3,2.1-0.5c2.2-0.5,4.2-0.6,6.9-1c0.7-0.1,2-0.3,2.4-0.3
		c0.5-0.1,0.5-0.1,0.7-0.1c0.7-0.1,2.5-0.6,5.2-2.4c4.2-2.8,5.9-5.6,6.3-5.4c0.5,0.3-1.5,4-3.1,6.6c-0.4,0.5-1.7,2.6-3.9,5.1
		c-0.2,0.3-0.8,0.9-1.5,1.7c-1.1,1.2-2.9,3.1-5.4,4.9c-1.7,1.2-2.5,1.9-3.8,2.5c-2.3,1.1-4.3,1.2-6.7,1.4c-3,0.2-5.4,0-6.4-0.2
		c-1.6-0.2-3.9-0.6-6.6-1.8c-2.2-1.1-3.7-2.3-5.7-3.9c-1.1-0.9-1.3-1.2-5.6-5.2C255.1,308.7,254.6,308.2,254.2,307.9z"/>
	<path class="st4" d="M299.4,305.8c-0.7,0.8-1.3,1.3-2,2c-0.6,0.5-2,1.7-4.1,3c-1.4,0.9-2.4,1.5-3.8,2.2c-0.4,0.2-1.2,0.5-4.7,1.5
		c-2.2,0.6-3.2,0.9-3.8,1.1c-3.9,0.8-7.1,0.5-7.9,0.4c-2.4-0.3-4.2-0.9-5.5-1.4c-1.3-0.5-2.3-0.9-4.2-1.7c-1.8-0.8-2.7-1.2-3.9-1.8
		c-2.7-1.4-4.9-3-4.8-3.2c0-0.1,1,0.6,2.9,1.4c1.6,0.7,2.9,1.1,4.5,1.6c2.1,0.7,3.4,1.1,5,1.4c0.7,0.1,1.9,0.3,6.1,0.5
		c4,0.2,6,0.3,7.2,0.1c3.2-0.4,5.6-1.3,7.1-1.9c0,0,2.8-1.1,5.1-2.4c0.3-0.2,0.6-0.4,0.6-0.4c0.2-0.1,0.4-0.2,0.4-0.2
		c0.5-0.3,1-0.6,1.1-0.6c0.5-0.3,2.1-1.3,3.3-2.4c2.8-2.4,6.4-7.1,6.6-6.9c0.1,0.1-1,1.5-3,4.8C300.7,304,300.2,304.8,299.4,305.8z"
		/>
	<path d="M306.7,292.9c0,0-0.3,0.8-0.1,1.6c0.1,0.6,0.4,1,0.8,1.6c0.2,0.2,0.6,0.9,1.4,1.6c0.7,0.6,1.4,1,1.4,1c0,0-0.5-0.5-0.6-0.6
		c-0.2-0.2-0.3-0.2-0.4-0.4c-0.2-0.2-0.2-0.3-0.3-0.4c-0.1-0.1-0.2-0.1-0.3-0.3c-0.1-0.1-0.2-0.3-0.2-0.3c-0.1-0.2-0.2-0.2-0.4-0.6
		c-0.3-0.4-0.6-0.7-0.8-1.2c-0.3-0.6-0.4-0.9-0.4-1c0-0.1,0-0.2,0-0.5C306.7,293.6,306.7,292.9,306.7,292.9z"/>
	<path class="st3" d="M362.1,217.7"/>
	<path class="st3" d="M356.7,214.7l-0.3-0.2L356.7,214.7z"/>
	<path class="st3" d="M357,214.9l-0.3-0.2L357,214.9z"/>
	<path class="st3" d="M357.4,215.1l-0.3-0.3L357.4,215.1z"/>
	<path class="st3" d="M366.8,216.2c-0.2-0.9-0.5-1.6-0.7-2c-1.8,0.2-3.5,0.4-5.3,0.7c-0.8,0-1.5,0-2.3,0l-1.8-0.7l-0.8-0.6l-0.8-0.5
		l0.2,1.9l0.4,4.4l0.8,8.7l1.7-0.9l2.1-1.1l2.5-1c1-0.2,1.9-0.4,2.9-0.6c0.3-0.1,0.6-0.2,0.7-0.3
		C368.5,222.8,367.1,217.2,366.8,216.2z"/>
	<path class="st0" d="M354.8,281.7c3.9-1.3,6.8-5.3,7.6-7.9c0.2-0.5,0.7-2.1,1.7-4.2c0.3-0.6,0.6-1.2,1.1-1.9
		c0.7-1.1,1.8-2.2,3.8-4.4c3.4-3.7,3.7-3.5,4.9-5c1.8-2.4,1.5-3.1,3.7-7.2c2.5-4.8,3.2-4.2,4.6-7.3c1.6-3.6,1.7-6.7,1.8-10.5
		c0.2-4.3,0.3-6.9-1.1-10c-0.5-1.1-1.8-4.2-5-6.5c-0.9-0.7-3.8-2.8-6.5-2.7c-1,0-1.8,0.4-3.5,0.2c-0.8-0.1-1.3-0.2-1.6,0
		c-0.5,0.5,0.1,1.4,0.1,3c0,1-0.2,1.4-0.8,3.4c0,0-0.2,0.8-1,4.1c-0.8,3.4-0.5,5-0.9,9c-0.1,0.9-0.4,4.2-1.2,7.5
		c-0.9,3.7-1.8,4.7-4.1,10.3c-1.5,3.6-2.6,6.7-4.9,13.1c-2.6,7.2-2.4,7.3-3.5,9.4c-2.1,3.9-3.7,5.4-3.1,6.7
		C347.7,282.4,351.8,282.7,354.8,281.7z"/>
	<circle class="st8" cx="219.9" cy="230.9" r="11.4"/>
	<circle class="st8" cx="314.9" cy="230.9" r="11.4"/>
</g>
<g id="computer">
	<path class="st9" d="M262,750.7c54.8,0.3,44.4-1.5,63.1-0.4c0,0,27.3,1.6,74-2c1.5-0.1,4.9-0.4,8.5-2.5c0.1-0.1,2.5-1.4,4-3.1
		c5.4-6.1,2.6-15.6,2.2-16.6c-6.7-101.7-9.2-141-9.3-143.8c-0.1-3.1-0.1-4.2-0.2-6.4c0-0.8-0.1-1.7-0.1-2.9c0-0.9-0.1-1.3-0.1-2.1
		c0-1.2-0.1-1.9-0.1-1.9c0-0.4-0.1-1.1-0.1-2c0,0-0.2-1.8-0.2-3.3c0,0-0.4-4.1-2.2-8.3c-3.3-7.6-21.9-7.7-21.9-7.7
		c-56.2-0.7-84.2-1.1-119.2,0.1c-56.4,2-84.7,3-89.7,2.3c-0.8-0.1-3.6-0.5-7.1,0.2c-7,1.5-11.8,6.6-14.7,10.5
		c-1,2.6-2.1,5.2-3.1,7.9c-0.2,84.3-0.2,145.9,0,153.9c0.1,2,0.3,5,0.4,7.4c0.8,11.7,1.5,13.2,2,14c3,4.8,10.6,5.2,16.2,5.4
		c21.3,0.9,31.9,1.3,38.7,0.4C213.4,748.6,207,750.4,262,750.7z"/>
	<path class="st10" d="M283.3,640.1c0.6-9.2,6.5-16.8,6.5-16.8c2.2-2.8,3.6-4.6,6.2-6.3c4.2-2.7,6.1-1.5,11.8-3.8
		c0.3-0.1,0.9-0.4,1.1-0.1c0.5,0.5-1.9,3.3-4.2,6.5c-3.7,5-3,5.4-7,11.2c-3.2,4.5-5.1,6.4-6.2,7.4c-1,1-5.9,5.5-7.6,4.3
		C283.2,642,283.2,641,283.3,640.1z"/>
	<path class="st10" d="M255.3,681.6c1.5,3,2.4,4.9,4.3,6.2c2.7,1.9,5.7,1.7,9,1.6c6.6-0.3,13.3,0.1,19.9,0
		c10.3-0.1,12.5,0.3,16.4-1.6c1.3-0.6,5-2.6,7.4-6.6c0.8-1.4,2.3-4.3,1.9-14.4c-0.3-8.3-0.5-12.5-2.7-18c-1.9-5-4.4-11.3-10.5-13.6
		c-0.7-0.3-6.5-2.4-10.5,0.4c-3.4,2.3-3.3,6.5-5.5,6.6c-1.7,0.1-2.2-2.3-5.5-5.5c-1.4-1.3-4.4-4.2-8.6-5.1
		c-6.5-1.4-11.7,2.8-12.1,3.1c-1.6,1.3-4.5,3.7-4.4,6.7c0.2,4.8,8.2,5.8,8.3,9.8c0.1,4.2-8.6,4.6-10.8,11.8
		c-1.1,3.6-0.2,7.5,0.8,11.4C252.8,675.3,253.6,678.2,255.3,681.6z"/>
	<path class="st10" d="M283,641c-0.6,0.1-2.5-4.5-2.7-10.1c-0.5-12.8,7.8-24.5,7.8-24.6l0,0c0,0,3.4,0.8,3.9,2.3
		c0.3,1-0.8,2.1-1.9,3.5c-2.5,3.2-3.4,6.4-4.7,11.3c-0.6,2.2-0.8,3.8-1.2,6.2C283.1,637,283.5,641,283,641z"/>
	<path class="st10" d="M738.4,351.7"/>
</g>
<g id="shirt">
	<path class="st11" d="M402.6,529c0.9,3.4,1.1,6.9,1.8,10.3c0.3,1.4,0.7,4.1,0.1,4.3c-0.7,0.3-1.7-3.2-4.7-4c-1.1-0.3-3-0.4-4,0.6
		c-1.6,1.7,0.6,4.5,0.9,8.8c0,0.5,0.1,1.7,0.9,2.4c0.1,0.1,0.4,0.3,0.9,0.7c0.6,0.4,0.7,0.5,1.1,0.8c0.3,0.3,0.5,0.4,0.8,0.7
		c0,0,0.3,0.3,0.6,0.8c0.5,0.7,1.1,2.1,1.7,3.9c0.3,0.9,0.5,1.8,0.7,2.5c0.3,1.5,0.5,2.3,0.5,2.9c0,0.2,0,0.7,0,1.3
		c0,0.1,0,0.2,0.1,0.8c0.1,0.5,0.1,0.7,0.1,1.2c0.2,1.5,0.3,10.8,0.6,15.9c0,0.5,0.1,1.8,0.2,3.4c0.1,0.8,0.1,2.5,0.2,4.1
		c0.1,2.4,0.3,4.2,0.4,5.6c0.1,1.4,0.6,9.5,0.6,9.5c0.8,12,0.7,11.7,0.9,13.6c0.2,2.7,0.4,5.4,0.6,8.1c0.1,1.2,0.2,2.3,0.3,3.9
		c0.1,2.5,0.1,2.6,0.2,4.9c0.1,2.1,0.2,3.9,0.3,4.9c0,0.1,0,0.5,0.1,0.9c0,0.3,0,0.4,0.1,0.9c0.1,0.8,0.1,0.8,0.1,0.8
		c0.5,1,4.7,0.2,4.9,0.1c1.4-0.2,1.7-0.3,2.4-0.3c1.7,0,2.6,0.5,8.2,0c5.3-0.5,6.7-1,14.7-2.2c8.4-1.3,12.5-1.9,15.9-2.2
		c7.5-0.6,11.8,0,13.1-2.5c0.5-0.9,0.3-2.4-0.1-5.4c-0.4-2.7-0.9-4.1-1.4-6.3c-0.7-3.1-0.8-5.2-0.9-8c-0.5-7.3-1.2-8.5-2.5-21.3
		c-0.4-4-0.8-9-1.6-19.1c-0.5-7-0.7-9-1.1-13c-0.2-1.7-0.8-6.9-2-13.9c-0.4-2.5-0.9-4.8-2.8-14.1c-2.5-11.7-3.7-17.6-4.4-19.9
		c-1.6-5.1-3.3-8.8-6.7-16.1c-2.5-5.5-5.5-11.5-9.2-18.1c-4.3-7.5-6.4-11.3-10-14.7c-1.7-1.6-5.3-5-10.9-7.5c-2.9-1.3-5.6-2-9-2.9
		c-2.2-0.6-4-0.9-7.6-1.7c-7.8-1.6-8.8-1.4-9.4-0.7c-0.5,0.6-0.2,1.2,0.6,6.3c0.4,2.4-0.1-0.5,0.8,5.3c0.1,0.6,0.8,5.3,1.2,7.6
		c1,5.7,2.2,10.7,3.1,14.2c2.1,8.6,1.3,6.4,4.9,23.1C400,516.6,400.9,522.9,402.6,529z"/>
	<path class="st11" d="M322.3,545.9c0-0.2,0.6-0.1,2.2-0.9c0.5-0.2,1.2-0.5,1.9-1c1.1-0.8,1.5-1,2-1.7c0.3-0.4,1.1-1.2,1.4-1.7
		c0.5-0.8,0.6-1.2,0.7-1.1c0.3,0,0.1,1.4,0.4,3.6c0.2,1.8,0.5,2.4,0.9,2.8c0.1,0.1,0.7,0.7,1.6,0.9c0.8,0.2,1.6-0.1,3.2-1.1
		c1.9-1.2,2.6-1.9,4.7-3.3c1.5-1,1.3-0.8,2.5-1.6c1.7-1.2,3.1-2.5,4.3-3.5c0.9-0.8,3-2.7,4.4-2.7c0.3,0,0.6,0.1,0.6,0.1
		c0.9,0.2,1.4,0.9,1.7,1.4c1.2,1.8,0.9,2.9,2,4.6c0.1,0.2,0.8,1.2,2,2.1c1.5,1.1,2.9,1.5,3.7,1.7c0.9,0.2,1.6,0.3,2.9,0.4
		c1,0.1,1.6,0.1,2.5,0c0.7-0.1,1.2-0.2,2-0.5c1.1-0.3,1.4-0.5,2.1-0.7c0.8-0.2,2.9-0.8,5.3-0.5c1,0.1,1.7,0.4,2,0.5
		c0.8,0.3,1.3,0.5,1.7,0.8c1,0.6,1.2,0.8,2,1.2c0.2,0.1,1.2,0.6,2.2,0.9c2.1,0.4,3.9-0.6,4.6-1c0.7-0.4,1.7-1.3,3.5-3.1
		c1.6-1.6,2.3-2.3,2.5-2.1c0.3,0.2-0.3,1.1-0.6,2.3c-1,4,1.2,7.2,0.2,7.8c-0.4,0.2-0.7-0.3-2.4-0.8c-1.6-0.5-2.9-0.6-4.4-0.6
		c-1.3-0.1-2.1,0-3.6,0.1c-1.5,0.1-3.6,0.2-6.2,0.3c-5.6-0.6-10-0.7-11.9-0.8c-4.6-0.1-4.6,0.1-9.1,0c-2.7-0.1-2.8-0.2-9.9-0.6
		c-6.5-0.4-9.7-0.6-11.1-0.6c-2.2,0-3.7,0.1-5.5,0c-0.6,0-1.2-0.1-2.1-0.2c-1.9-0.2-9.7,0.3-12-0.1
		C315.7,546.9,322.3,546,322.3,545.9z"/>
	<path class="st11" d="M52.1,584.4c0-0.1-0.1-0.3-0.3-0.5c-0.1-0.1-0.2-0.1-0.2-0.1c-0.3-0.3,0.9-1.9,0.9-1.9
		c3.1-3.2,4.7-7.7,7.7-10.9c1.2-1.3,0.8-1.4,12.1-21.4c11.5-20.4,12.3-21.7,13.3-23.4c11.7-19.9,11.1-16.5,20.2-32.3
		c2.3-4,5.4-8.8,9.7-14.5c5.1-6.8,8.3-9.8,9.3-10.7c2.8-2.6,5.9-5,5.9-5s1.6-1.2,2.9-2.1c4.9-3.2,11.8-4.6,16.6-5.5
		c9.5-1.8,8.4-1.3,14.8-2.5c6-1.2,14.9-3.2,14.9-3c0,0.1-0.4,0.2-0.8,0.7c0,0.1-0.2,0.3-0.4,0.7c-0.1,0.2-0.2,0.5-0.3,0.9
		c-0.2,0.7-0.2,1.3-0.2,1.5c-0.1,1,0,1.7,0,2c0.1,1,0.3,2.3,0.9,4.1c0.6,2.1,1.2,3.6,1.5,4.4c0.5,1.2,1,2.3,1.8,3.7
		c0.9,1.6,1.8,2.7,2.5,3.4c0.4,0.5,2,2.3,4.3,4.2c1.1,0.9,2.2,1.6,4.3,3.1c1.3,0.9,1.8,1.2,2.3,1.5c1,0.6,2.1,1.1,3.6,1.6
		c1.1,0.3,1.4,0.3,2.3,0.6c0.8,0.4,1.4,0.8,1.9,1.1c0.2,0.2,1.3,1,2.3,2.1c2.6,3.1,3.1,7,3.2,7.7c0.2,1.6,0.1,2.8-0.1,4.4
		c-0.2,2.7-0.6,3.1-0.9,5.3c-0.2,2.5,0,4.4,0.3,6c0.4,2.8,1.1,5,1.5,6.1c0.5,1.3,1,2.7,2,4.3c0.4,0.7,1.3,2.1,2.7,3.5
		c1.5,1.5,2.8,2.2,5,3.5c2,1.1,2.9,1.7,4.3,2.1c1.5,0.4,3,0.9,4.8,0.6c0.6-0.1,2-0.3,3.6,0.1c0.3,0.1,0.6,0.2,0.7,0.2
		c0.8,0.3,2,0.7,2.5,1.7c0.1,0.1,0,0.1,0.2,0.8c0.5,1.6,0.7,1.9,0.9,2.8c0.1,0.5,0.1,0.5,0.2,1.5c0,0.1,0.3,1.8,0.6,3.1
		c0,0,0.4,1.8,1.3,3.6c2.1,4.2,19.5,4.4,19.5,4.5c0,0.2-22.5,0.7-24.2,0.8c-1.7,0-3.3,0.1-3.3,0.1c-2.4,0.1-2.5,0.1-7.6,0.3
		c-4.6,0.2-7.1,0.3-7.8,0.3c-1.3,0-1.4,0-2.9,0.1c0,0-3.8,0.1-8,0.3c-9.4,0.4-9.4,0.6-14.8,0.7c-1.8,0-1,0-9.6-0.1
		c-2.2,0-4.3-0.1-6.5,0c-2.6,0.1-5.2-0.6-7.8-0.2c-0.2,0-1.2,0.2-1.4-0.2c0,0,0-0.1,0-0.1c0-0.2,0.1-0.5,0.3-2
		c0.3-1.7,0.3-2.5,0.4-3.7c0.2-1.4,0.5-3.4,1.3-6.2c0-0.9,0.1-2.2,0.4-3.7c0.4-1.7,0.8-2.6,0.6-2.7c-0.3-0.2-2,2.2-4,5
		c-1.7,2.3-3.4,4.6-5,6.9c-2.1,3-5.5,7.6-11.4,14.6c-6,10.3-11.2,18.5-14.9,24.3c-11.1,17.3-11.4,16.1-14.5,22.6
		c-4.5,9.5-5.3,14.9-9.4,15.8c-2.8,0.6-4.4-1.5-13.6-8.1c-2.8-2-6.6-4.5-14.1-9.4c0,0-11.6-7.9-18.3-11.5c-0.4-0.2-1.6-0.9-2.8-1.5
		c-2.1-1.1-1.2-0.5-1.6-0.8c-0.3-0.1-0.6-0.3-1.1-0.5c-0.3-0.1-0.6-0.2-0.7-0.2c-0.1,0-1.9-0.4-2.8-1.6
		C53.2,587.2,52.6,586.4,52.1,584.4z"/>
	<path class="st12" d="M204.2,442.3c2.5,0.1,6,2.6,9.8,13.5l19.3,26.8l25.2,26.8c5.8,5.2,12.3,10.5,19.4,15.7
		c3.2,2.3,6.3,4.6,9.4,6.6c2.6-3.5,5.2-6.9,7.8-10.4c5.6-6.5,11.3-13,16.9-19.5c3.5-3.8,6.9-7.5,10.4-11.3c1.9-2.3,3.9-4.6,5.8-6.8
		c0.4,4.6,0.8,9.3,1.1,14.1c0.7,11.3,1,22.1,0.9,32.4c0.4,1,2.1,5.3,0,9.5c-1.8,3.7-5.5,5.2-7.9,6.1c-3.1,1.2-5.8,1.3-6.6,1.4
		c-10.5,0.4-24.5,0.1-29.6,0.1c-3.9,0-12.3,0.1-21.8,0.5c-2.2,0.1-5.7,0.3-10.5,0c-7.7-0.5-11.5-0.8-13.9-2.9
		c-4.9-4.4-1.7-11.6-6.3-14.6c-2.1-1.3-3.2,0.1-7.9-0.8c-0.4-0.1-5.6-1.2-9.9-4.7c-7.2-6-7.8-16.1-7.9-18.9c-0.2-6.8,2.3-9,0.4-14.6
		c-0.5-1.6-1.8-5.2-5.1-7.5c-2-1.4-3.1-1.1-6.7-2.8c-3.1-1.5-5.2-3.1-6.3-3.9c-1.6-1.2-5.6-4.4-8.3-9.5c-2.8-5.4-5.6-14.2-2.4-17
		c0.6-0.5,1-0.5,4.2-1c3.1-0.5,7.3-1.3,9.2-1.8C200,446.1,200.8,442.2,204.2,442.3z"/>
	<path class="st13" d="M51.1,601.1c0.2,0.6,0.7,1.7,1.5,3.8c1.7,4.1,2.1,4.7,2.6,5.4c0.5,0.6,1.3,1.7,2.6,2.5
		c1.9,1.2,3.6,1.4,5.7,1.7c1.9,0.2,3.1,0.3,4.7,0c2.8-0.6,3.6-2,5-1.5c0.8,0.3,1,1,2.2,3.5c0.1,0.2,1.6,3.3,2.9,5.5
		c1.6,2.8,2.4,4.1,4,5.1c1.1,0.7,2.4,0.9,4.8,1.4c1.2,0.2,2.9,0.5,5.3,0.6c2,0,2.4-0.2,5.5-0.3c2.8-0.1,3.3,0.1,3.6,0.3
		c2,1,2.4,3.8,2.5,5.1c1.2,2.2,2.5,3.1,3.5,3.6c1.1,0.6,1.5,0.3,4.6,1.1c2.5,0.6,3.5,1.1,3.7,0.8c0.2-0.4-1.2-1.4-2.5-2.9
		c-2-2.4-2.7-4.8-3.5-7.5c-1.2-4.3-0.6-5.9-2.5-8c-1-1.1-2-1.6-2.6-1.9c-5.4-2.8-10.1-6.9-15.3-10.3c-8.8-5.7-8.6-5.6-9-5.8
		c-5-3.3-6.7-4.6-10.9-7.2c-3.5-2.2-5.2-3.2-7.4-4.3c-2-1-4-2.2-6.1-3c-1.2-0.4-2.1-0.6-2.9-1.5c-1.3-1.5-0.7-3.1-1.6-3.5
		c-0.9-0.4-1.8,1.4-4.7,2.8c-0.9,0.5-1.7,0.6-2.6,1c-3.9,1.5-9,0.2-9.5,1.5c-0.4,1,1.8,2.7,2.9,3.5c0.5,0.3,1.9,1.2,6.9,2.3
		c3.4,0.8,3.9,0.6,4.7,1.4C50,597.1,49.9,597.7,51.1,601.1z"/>
	<path class="st13" d="M408.5,643.9c0.6,1.6,0.8,3.2,0.8,3.2c0.4,0.8-0.1,2.1-0.1,2.1c-2.1,8,1.1,6.7,2.2,6.2c1.9-0.9,3.3-1,4-0.9
		c1.3,0.2,2.3,0.9,3.7,2c2.3,1.7,2.5,2.5,3.4,2.6c1.2,0,1.8-1.4,3.7-3.7c0.4-0.5,3.3-4,7.4-6.6c1.4-0.9,2.8-1.7,4.9-2.3
		c1.9-0.5,3.4-0.4,6.3-0.3c2.1,0.1,4.5,0.1,7.4,0.9c4.1,1,3.7,2,8,3.1c3.9,1,4.2,0.2,7.4,1.4c2.2,0.8,3.5,1.8,4.6,1.1
		c0.9-0.5,0.6-1.3,2-3.4c0.7-1,1.3-1.9,2.3-2.6c1.8-1.1,3.2-0.6,3.4-1.1c0.3-0.9-2.8-2.2-6.8-5.3c-3.7-2.8-3.8-3.8-5.8-4.4
		c-2.7-0.8-4.7,0.3-8,1.4c-3.3,1.1-1.9,0.2-12.9,2.1c-5.8,1-11.3,2.1-16,3c-0.7,0.1-2.4,0.4-4.7,0.7c-0.7,0.1-1.2,0.2-2,0.2
		c-0.6,0.1-1.8,0.2-5.5,0.2c-1.3,0-1.8,0-3.1,0c-1.7,0.1-3.3,0.1-3.3,0.1c-2,0-2.3,0.3-2.7-0.1c-0.6-0.5-1-1.1-1-1.1c0,0,0,0,0,0.1
		c0,0.1,0,0.1,0,0.2c0,0.1,0,0.3,0,0.4C408.4,643.5,408.5,643.8,408.5,643.9z"/>
	<path class="st11" d="M250,556.5"/>
</g>
<g id="arm">
	<path class="st14" d="M138.6,717.8c-0.9,0.9-2.7,0.3-5.1-0.2c-2.7-0.6-5.4-0.5-8.1-0.9c-5.9-0.8-15.8-1.2-27.1-1.8
		c-18-0.9-16.8-0.2-27.9-1.1c-8.3-0.7-4.6-0.8-23.5-2.9c-10.3-1.2-13.7-1.4-18.7-3.7c-6.9-3.1-11-7.3-12.5-8.8
		c-2.4-2.6-6.1-6.5-7.7-12.8c-1.6-6.2-0.3-11.4,0.7-15.4c0.6-2.5,2.5-6.4,6.1-14.3c3.4-7.3,5.1-11,6.3-13.1c2-3.5,3.9-6.6,6.4-12.1
		c0.7-1.7,1-2.4,1.7-4.1c2.7-6.2,5.6-13,9.9-20.2c1.7-2.8,4.1-6.6,7.5-10.9c0,0,0,0,0,0c0.3,0,0.5,0,0.5,0c0.3-0.1,1,0.1,1.5,0.4
		c0.3,0.2,0.5,0.4,0.7,0.6c0.8,1,0.7,2,1.3,3.6c0.2,0.7,0.2,0.4,0.8,1.8c0.6,1.5,0.9,2.5,1.1,3c1,2.8,3,5.1,3.1,5.2
		c2.3,2.5,4.9,3.4,5.5,3.7c1,0.3,2.8,0.9,5.1,0.7c4.1-0.2,5-2.2,6.8-1.5c1.5,0.6,1.3,1.9,4.1,7.1c1.4,2.6,2.1,4,3.4,5.1
		c1.7,1.5,3.4,2.1,5.5,2.8c1.8,0.6,3.7,1.3,6.2,1c1.1-0.1,2-0.4,2.6-0.6c0,0,0,0,0,0c0.4,0.2,2,0.4,5,0.5c0.3-0.1,0.9-0.2,1.6,0.1
		c1,0.3,1.7,1.2,1.8,2.2c0.1,0.8-0.3,1.4-0.5,1.7c-1.5,2.3-3,4.4-3.7,5.4c-0.8,1.2-2,2.8-3.4,4.6c-1.7,2.2-3.3,4.3-4.4,5.6
		c-4.7,5.7-9.5,10.2-10.8,11.3c-5.4,4.9-7.6,5.9-7.2,7.2c0.4,1.6,3.9,1.6,12.1,2.3c7.8,0.6,15.5,1.6,23.3,2.4
		c8.8,0.9,10.3,1.1,13.8,1.1c3,0.1,6,0.3,9,0.2c4.7-0.1,7.2-0.6,8.4,0.9c0.7,0.9,0.5,2,0.2,4.3c-0.3,3.1-0.1,6.2-0.3,9.3
		c-0.4,5.3-0.5,10.1-0.6,19.8c0,2.3-0.4,4.5-0.3,6.8C139.1,716.1,139.3,717.1,138.6,717.8z"/>
	<path class="st14" d="M452.1,659.7c-4.3,1.4-6.1,6.8-6.7,8.3c-0.8,2.3-1.2,5.3-1.2,7.7c-0.1,8.4-1,2.4-1,17.1c0,11.3,0,13.9,0,16.3
		c0,0.8,0,1.7,0,2.3c0.1,7,0,7.7,0.1,9c0.1,3.4,0.5,6,0.9,8.6c0.9,6.3,1.5,9.3,2.9,10.8c2.1,2.2,4.9,2.7,8.8,3.4
		c1.1,0.2,6.9,1.3,11.5-0.4c0.6-0.2,3.8-1.4,3.8-1.4c0,0,0.2-15.5-0.2-32.5c-0.3-11.9-0.7-17.5-0.5-25.4c0.1-2.4,0-4.7,0.1-7.1
		c0.1-4-0.8-8-0.7-12c0-0.8,0.1-2.5-0.9-3.2c-0.6-0.4-1.2-0.3-2.2-0.3c-1.5,0-1.5-0.3-4.5-0.8c-1.5-0.3-3.5-0.6-5.9-0.7
		C454.3,659.4,453.2,659.4,452.1,659.7z"/>
	<path class="st14" d="M411.4,655.3c0.6-1.1,2.8-1.1,4-0.9c1.3,0.3,2.2,0.9,3,1.5c0.5,0.3,1.4,1.1,2.4,2c0.8,0.7,1.2,1.1,1.8,1.1
		c0.4,0,0.8-0.1,1.5-0.9c1.5-1.5,2-2.9,2.2-2.8c0.2,0.1-0.6,2.9-1.2,5.6c-0.5,1.9-0.9,3.8-1.3,6.2c-0.2,1.1-0.3,3.5-0.6,8.4
		c-0.1,1.1-0.1,1.9-0.2,3.1c-0.2,2.1-0.4,3.3-0.6,6.8c-0.3,4.2-0.4,7.4-0.6,10.8c-0.1,3.1-0.3,6.7-0.3,11.3c0,5.4,0,8.6,0.3,12.8
		c0.3,4.1,0.6,7.7,1.7,12.2c0.9,3.5,2.5,8.7,6,14.5c-1,0.2-2.4,0.4-4,0c-2.5-0.7-2.8-2.3-5.3-3.8c-3.7-2.3-6.1-0.8-7.2-2.7
		c-0.9-1.5,0.4-2.8,1.3-7.5c0.3-1.6,0.4-3.2,0.7-6.4c0.5-5.9,0-9.8-0.3-16.7c-0.1-2.9,0-0.6-0.3-13.6c-0.2-9.5-0.3-14.3-0.6-18.4
		c-0.4-7.4-0.6-11.1-0.9-13c-0.3-2,0.1-3.3-0.4-5.1C411.9,657.2,410.9,656.2,411.4,655.3z"/>
</g>
<g id="coffee_cup">
	<path class="st15" d="M422.7,668.1c-0.6,2.8-1.1,6.8-1.3,16.5c-0.1,8.7,0.2,19.6,0,22.9c0,0.2-0.1,1.2-0.1,2.6c0,0.4,0,1.2,0,3
		c0,0.3,0,2.2,0,3.7c0.1,4.8,0.1,7.2,0.4,9.8c0.1,0.9,0.6,5,1.9,10.2c1,3.8,1.5,5.7,2.9,8c0.8,1.4,2.4,3.9,5.6,6
		c0.7,0.5,3.4,2.2,7.3,2.8c1.8,0.3,3.2,0.4,5.6,0c3-0.5,5.9-0.9,8.9-1.4c3.6-0.6,3.3-0.6,4.2-0.8c0.3,0,5.3-0.9,10.3-1.1
		c9.8-0.5,13.2,1.6,14.7-0.5c0.9-1.2-0.2-1.9,0-7.3c0.2-3.3,0.7-5.1,0-5.5c-0.6-0.3-1.4,0.7-3.5,1.9c-1.7,1-3.3,1.5-4.3,1.8
		c0,0-3.1,0.9-7.2,1.6c-6.2,1.1-11.2,0.3-12.9,0c-3.2-0.6-4.8-0.9-6.2-1.9c-2.8-2-4.2-5.5-5.1-14.9c-0.7-6.8-0.7-11.9-0.8-15.7
		c-0.1-17,0-20.1,0.3-25.2c0.1-1.4,0.5-8.9,3.5-17.7c1.3-3.8,2.5-6.1,4.8-7.2c1.1-0.5,2.2-0.6,9.1,0.5c6.6,1.1,9.9,1.6,11.3,2.1
		c4.8,2,6.8,4.5,8,3.7c1-0.7-0.3-2.7,0.2-7.9c0.2-2.5,0.6-3.1,0-3.8c-1.2-1.5-3.7,0.2-7.6-1.4c-0.7-0.3-1.5-0.7-3.2-1.3
		c-1.2-0.4-2.1-0.7-2.5-0.8c-2.4-0.7-2.9-0.6-5.8-1.3c-1.1-0.3-2.2-0.6-3.6-1c-1.4-0.5-1.8-0.7-3.2-1.2c0,0-1.8-0.7-3.7-1.1
		c-2.2-0.5-6.2-1.3-11.1-0.4c-1.5,0.3-3.7,0.7-6.3,2.2c-1.2,0.7-4,2.4-6.2,5.6c-1.1,1.6-1.6,3.5-2.7,7.2
		C424.1,662.6,423.3,665.2,422.7,668.1z"/>
	<path class="st16" d="M481.9,636.1c0.1,0.2,0.3,0.5,0.5,0.9c0.3,0.8,0.2,1.1,0.4,1.7c0.3,0.6,0.5,0.5,0.9,1.1c0.6,1,0.2,1.7,0.6,2
		c1.3,0.8,3.3-2.3,8.8-5.1c0.5-0.2,1.8-0.8,4.6-2c0,0,2.9-1.2,5.1-2.2c8.1-3.4,23.1-4.7,23.1-4.7c8.9-0.8,10,0,33,1
		c1.8,0.1,5.5,0.2,10,1.8c1,0.3,2.8,1,5,2.2c8.3,4.5,10.3,10.4,13.2,9.7c1.3-0.3,2.1-2.4,3.6-6.6c1-2.9,1.6-4.3,1.5-6.2
		c-0.1-3.8-2.3-7.7-2.3-7.7c0,0,0,0,0,0c-1.9-2.4-3.1-4.2-3.3-4.5c-1.6-2.2-4.9-4.2-6.2-5c-3.9-2.4-8.1-3.4-14.6-4.6
		c-2.1-0.4-8.2-1.5-18.6-1.8c-5.7-0.2-12-0.4-20.4,0.5c-9.1,1-15.1,2.6-23.8,5c-2.3,0.6-7.3,2-12.9,5.3c-3,1.8-4.9,3.4-6.5,5.4
		c-0.7,1-3,4.1-3.1,7.7c0,0.4-0.1,1.2,0.1,2.2C480.5,632.4,480.9,634.4,481.9,636.1z"/>
	<path class="st17" d="M486.3,760.8c1.7,2.8,4.1,5.8,6.2,7.6c6.6,5.7,20.3,6.7,21.1,6.8c29.2,1.9,43.9,1.1,52.8,0.4
		c14.2-1.1,20.6-2.2,24.4-7.3c2.3-3.1,3.4-6.7,3.7-13.2c0.5-11.9,0.8-17.9,0.5-20.5c-1.2-11.4,0.8-5.4-0.4-52
		c-0.7-28-2-53.4-2.8-53.4c0,0-0.1,0.3-0.4,1c-0.7,2.2-1,3.7-1.3,4.7c-0.4,1.4-0.8,2.3-1.6,4c-2.6,5.5-5.7,8.9-6.5,9.7
		c-1.9,2-5,4.7-10.6,7.3c-16.3,7.7-37,6.5-46.3,5.9c-9.6-0.6-14.7-1.9-19.2-3.5c-4.1-1.6-9.3-3.5-14.4-8.2
		c-6.7-6.3-10.6-15-11.2-17.2c0-0.1-0.2-0.7-0.3-0.7c-0.3,0-0.5,3.6-0.3,6.7c0.1,2.4,0.5,3.6,0.5,5.2c0.2,4.5-0.6,8-0.5,22.1
		c0.1,15.7,1,15.2,1.5,34.9c0.3,15.3,2.1,30.5,1.6,45.7c0,1.2-0.2,5.1,1.3,9.7C485.2,758.6,485.9,760,486.3,760.8z"/>
	<path class="st18" d="M484.9,641.3c-0.1,1,1.5,2.8,4.7,6.5c0.1,0.1,0.4,0.4,0.7,0.8c0.2,0.2,0.7,0.8,1.6,1.5c1,0.9,2.3,2,3.2,2.7
		c4,2.9,10.3,5.2,10.7,5.4c3.4,1.2,6.3,1.9,8.4,2.4c3.1,0.6,9,1.7,20,1.7c8.3,0,14.5,0,22.8-1.6c5.9-1.2,10.9-2.8,15.7-5.2
		c2-1,4.4-2.4,7-4.5c3.1-2.5,8.1-6.7,7.2-10.1c-0.4-1.5-2.2-2.9-6.3-5.1c-3.5-1.9-5.4-3-9.3-4.3c-5.8-2.1-10.4-2.8-15.9-3.6
		c-3.8-0.6-8.6-1.3-15.1-1.4c-4.2-0.1-8.3,0.3-16.6,1c-7,0.6-9.2,1-11.2,1.5c-3.2,0.8-5.5,1.7-10,3.5c-3,1.2-2.2,1-9.6,4.2
		C486.5,639.5,485.1,640,484.9,641.3z"/>
	<path class="st17" d="M595.6,628.1"/>
	<circle class="st19" cx="219.9" cy="230.9" r="6.3"/>
	<circle class="st20" cx="314.9" cy="230.9" r="6.3"/>
	<rect x="315.5" y="227" class="st21" width="1.8" height="2.6"/>
	<path class="st21" d="M220.8,227h1.4c0.1,0,0.2,0.1,0.2,0.2v2.2c0,0.1-0.1,0.2-0.2,0.2h-1.4c-0.1,0-0.2-0.1-0.2-0.2v-2.2
		C220.6,227.1,220.7,227,220.8,227z"/>
</g>
<g id="hair">
	<path class="st22" d="M312,346c-0.1,0.7,0.1,1.3,0.3,1.7c0.4,1,0.6,2,0.6,7.6c-0.1,4.8,0,9.2,0,10.7c0.1,6.8,1.1,12,1.7,15.3
		c0.8,4.4,1.7,7.5,2.8,11.3c2.7,9.3,3.8,10.2,5.7,17.5c0.8,3.3,1.8,7.2,2.3,12.4c0.5,6-0.2,6.7,0,13c0.3,7.8,1.5,8.9,2.3,17
		c0.5,5.9,0,6.5,0,15.8c0,9.2,0.6,9.4,1.1,23.2c0,1.1,0.2,8.3,0.6,22.6c0.2,6.6,0.9,13.2,1.1,19.8c0.2,7.6,0.1,11.4,2.3,12.4
		c2,0.9,4.9-1.1,9.6-4.5c6.8-4.9,8.5-8,10.7-7.4c2.7,0.8,1.8,5.6,6.2,8.5c2,1.3,4.1,1.5,5.7,1.7c5,0.5,6.4-1.6,10.7-1.7
		c6.1-0.1,6.7,4,11.3,3.4c5.5-0.8,6.8-7.1,11.3-6.8c3.6,0.3,5,4.5,6.2,4c1.9-0.8-1.2-10.8-4.5-26.6c-1.9-9.1-1.3-7.8-3.4-17.5
		c-3-14.2-3.9-15.1-5.7-24.9c-1.5-8.4-2.3-15.3-2.8-20.4c-1.3-11.7-0.6-11.7-1.7-19.2c-1.3-8.9-3.2-15.7-5.1-22.6
		c-3.3-11.7-3.8-10.5-6.2-19.8c-2.8-10.9-2-12.6-5.1-23.2c-1.9-6.6-2.5-6.8-4.5-14.1c-2.4-8.7-3.6-15.4-4-17.5
		c-1.1-6.4-0.6-6-2.3-18.7c-1-7.8-1.5-11.8-2.3-16.4c-1.8-11.1-2.3-11.6-1.7-14.1c0.5-2,0.5-4.3-0.2-5.9c-0.2-0.4-0.4-0.7-0.7-0.8
		c-0.2-0.1-0.4,0-1.1,0.2c-0.1,0-0.5,0.1-0.9,0.1c-0.3,0-0.5,0-1,0c-0.5,0-0.6,0-0.7,0c-0.1,0-0.2,0-0.6-0.1c-0.4,0-0.5-0.1-0.6-0.1
		c-0.4-0.1-1.3-0.3-1.9-1c-0.6-0.6-0.6-1.2-0.8-1.2c-0.3,0-0.4,0.9-0.7,2.1c-0.2,0.7-0.4,1.6-1,3.3c-0.1,0.2-0.1,0.3-0.2,0.5
		c-0.5,1.3-0.8,2.3-1,2.8c-0.9,2.3-1.4,3.5-1.4,3.6c-0.6,1.2-0.6,1.1-1.7,3.4c-0.8,1.5-0.8,1.6-1.7,3.4c-0.1,0.3-0.3,0.6-1.5,2.8
		c-1,2-1.5,3-1.9,3.7c-1.5,2.8-1.4,2.6-2.3,4.3c-0.8,1.6-1.4,2.9-2.3,4.6c-1.1,2.2-1.8,3.8-1.9,4.2c-0.5,1.1-0.9,1.9-1.1,2.5
		c-1.1,2.4-1.2,2.8-1.8,4.1c-0.4,0.9-0.9,2-1.6,3.3c-0.9,1.7-1.7,2.9-2.6,4.3c-1.7,2.6-3.3,4.6-4.2,5.7c-1.6,2.1-2.5,3.1-2.8,3.5
		C313.4,343.7,312.2,344.5,312,346z"/>
	<path class="st22" d="M162.2,261.7c0.4-0.1,0.7,0.3,4.4,6.1c1,1.6,1.1,1.8,1.2,1.9c0.6,1.3,1.4,3.5,2,4.2c0.2,0.2,0.5,0.5,0.5,0.5
		c0.3,0.3,0.5,0.4,0.6,0.6c0.4,0.4,0.6,0.6,0.8,0.9c0,0,0.8,0.9,2.8,2c0.1,0.1,0.2,0.1,0.4,0.2c0.1,0,0.2,0.1,0.3,0.1
		c1-0.3,2.1-0.6,3.1-1c0.2-0.1,0.3-0.3,0.4-0.4c0,0,0.2-0.2,0.3-0.4c0,0,0.1-0.2,0.2-0.4c0-0.1,0.1-0.2,0.1-0.2
		c0-0.1,0.1-0.1,0.1-0.2c0-0.1,0.1-0.1,0.1-0.2c0-0.1,0.1-0.1,0.1-0.2c0,0,0-0.1,0-0.1c0,0,0,0.1,0,0.1c0,0.1,0.1,0.2,0.1,0.3
		c0.1,0.5,0.5,1.2,0.5,1.2c0.5,0.8,1,2.7,1.9,5.2c0.4,1.1,0.7,1.8,1.3,3.1c0,0,0.8,1.9,1.8,3.9c0.1,0.3,0.3,0.6,0.6,1.3
		c0.3,0.7,0.4,0.8,0.6,1.2c0.2,0.4,0.4,0.8,0.7,1.3c0.3,0.5,0.4,0.8,0.7,1.3c0.5,0.8,0.7,1.3,1,2c0.6,1.1,1,1.9,1.6,2.9
		c1.1,1.9,2.1,3.3,2.9,4.6c0.9,1.3,2.6,3.9,5.2,7c1.1,1.4,1.9,2.4,3.3,4c0.5,0.6,1.8,2.1,3.9,4.6c3.2,3.6,4.7,5.5,6.3,7.1
		c2.2,2.2,4,3.9,4.8,4.6c1.8,1.6,2.2,1.8,4,3.5c2.5,2.2,3,2.9,4.2,4c0.5,0.5,0.9,0.8,1.1,1c3.5,3.1,5.3,4.7,6,5.2
		c2.4,1.9,3.7,2.8,3.9,2.9c0,0,2.2,1.3,2.4,2.6c0,0.2,0,0.3,0,0.5c0,0.6-0.3,1-0.6,2.5c-0.5,2.2-0.3,3.3-0.3,6
		c0,2.4-0.2,2.6-0.6,7.2c-0.4,5-0.3,5.6-0.6,9.9c-0.4,4.8-0.7,9.6-2.1,15.6c-1,4.2-2,7.4-2.4,8.4c-0.8,2.2-1.6,4.2-3.3,8.1
		c-1.9,4.5-3.4,7.7-3.9,8.7c-1.7,3.6-2.5,5.4-3.6,7.2c-1.1,1.9-2.5,4.3-4.8,6.9c-1.6,1.8-3.5,3.4-7.2,6.6c-3.2,2.7-4.8,4.1-6.3,5.1
		c-2.5,1.7-5.6,3.8-9.9,5.1c-3.7,1.1-3.9,0.3-10.2,1.5c-4.1,0.8-4.1,1.2-8.7,2.1c-4.5,0.9-4.3,0.5-9.6,1.5c0,0-5,0.9-11.1,2.4
		c0,0-2.2,0.7-3,0c-0.8-0.7,0.1-3.1,0.3-3.6c1.6-4.1,0.3-7.5,0-14.4c-0.3-5.3,0.4-4.5,1.5-18.9c0.6-8.4,1-13.8,0.9-21.1
		c-0.1-8.7-0.8-8.3-0.9-16.2c-0.1-9.6,0.9-10.3,1.2-22.3c0.2-9.6-0.4-9.5,0-18.3c0.4-8,0.9-8.4,1.2-16.2c0.3-8.1-0.3-8.5,0-17.1
		c0.2-6.7,0.3-10.7,1.2-16.2c1.2-7.5,2.6-10.5,3.6-17.7c0-0.2,0.4-2.3,1.2-6.3C161.4,262.9,161.6,261.9,162.2,261.7z"/>
	<path class="st23" d="M150.8,149.1c0.8-1.8,2.2-4.5,3.7-8c2.4-5.5,2.9-7,4.5-9.7c0.7-1.2,2.7-3.1,5.8-7.7c2.1-3.1,1.5-1.8,7.7-9.9
		c4.9-6.5,4.5-6.3,6.9-9c0.7-0.8,3.7-4.4,8.2-8.8c2.1-2.1,1.9-1.7,6.3-5.8c7-6.4,7.4-7.2,10.1-9c3.3-2.2,6.1-3.3,7.9-4.1
		c2.8-1.1,5.3-1.9,12.1-3.3c7.4-1.5,11.9-2.5,18.6-3.3c3.5-0.4,8.2-1,14.5-1.1c3.5-0.1,8.4-0.2,14.8,0.5c3.2,0.3,6.8,1.1,14,2.5
		c6.4,1.3,9.6,1.9,14,3c4.5,1.2,5.2,1.5,9.3,2.5c5.3,1.2,5.9,0.9,9,1.9c3.8,1.2,6.7,2.7,9.3,4.1c4.3,2.3,4,2.7,8.5,5.2
		c5.6,3.1,6.1,2.5,9.9,4.9c5.1,3.3,7.5,6.6,8.2,6c0.6-0.5-0.5-3.1-1.4-4.9c-1-2.3-1.9-3.6-4.4-7.4c-3.1-4.9-2.9-4.7-3.6-5.5
		c-1.6-2-2.7-2.6-6.3-5.5c-5-4-4.4-3.9-8.2-6.9c-3.5-2.7-5.2-4-7.9-5.5c-4.2-2.3-7.8-3.3-9.9-3.8c-6.1-1.7-6.6-0.6-12.1-2.2
		c-5.7-1.6-5.4-2.8-10.4-4.1c-1.5-0.4-2.3-0.5-12.6-1.1c-9.7-0.6-10.5-0.6-11.5-0.5c-3.9,0.1-4.3,0.5-11.8,1.1
		c-5,0.4-4.5,0.2-8.2,0.5c-5.1,0.5-6.7,0.9-11.8,1.4c-4.8,0.5-5.3-0.1-7.7,0.5c-3.7,1.1-6.9,2.7-6.9,2.7c-1.1,0.6-2.3,1.3-4.1,1.6
		c-1.4,0.2-1.6,0-2.7,0.3c-1.6,0.4-2.3,1.2-4.1,2.5c-1.6,1.1-2.3,1.3-3.8,2.2c-2.6,1.5-4.3,2.9-10.1,7.7c-7.4,6-7.3,5.9-7.9,6.6
		c-3.1,3.1-2.9,3.8-6.9,7.9c-3.2,3.4-3.6,3.3-6.3,6.3c-2.2,2.4-3.6,4.4-5.5,7.1c-0.8,1.1-3,4.3-5.2,7.9c-1.7,2.9-5.4,9-8.1,17.1
		C153,131.4,151,139.1,150.8,149.1z"/>
	<path class="st22" d="M167.5,216.4c-1.8,0-2.4-2.3-6.2-6.8c-3.3-4-4.2-3.8-5.5-6.4c-0.8-1.6-1.3-3.4-2.1-7.1
		c-0.9-3.8-1.4-6.7-1.5-7.4c-0.9-5-1.4-9.8-1.8-14.4c-0.4-4.1-0.7-8.3-0.6-13.8c0.1-7.6,0.9-10.3,1.2-11.4c0,0,0.1-0.3,0.2-0.6
		c1.7-4.5,3-7.4,3-7.4c2.1-4.3,2.9-6.5,3.8-8c1.5-2.6,3.8-5.7,5.7-7.9c0.4-0.5,1.4-1.6,2.6-3.2c0.9-1.2,0.9-1.4,1.7-2.6
		c1.1-1.6,1.7-2.1,3.1-3.8c1.2-1.5,1.4-1.9,2.8-3.7c2-2.6,2.5-3,4.3-5.3c1.2-1.7,1-1.5,2-2.8c0.8-1.1,1.8-2.2,6.9-7.3
		c1.4-1.4,2.1-2.1,2.7-2.7c2.4-2.3,3.9-3.5,5.5-5c4.5-3.9,5.9-5.5,9.7-8.4c2.2-1.7,4.4-3.2,5.6-2.5c0.1,0.1,0.1,0.1,0.6,1
		c1.4,2.5,1.7,2.8,2.1,4c0.6,1.8,0.8,3.2,0.9,4c1,7.4,2.1,11.4,2.1,11.4c1.3,4,3,5.9,1.9,7.7c-0.4,0.6-0.7,0.5-1.6,1.6
		c-0.9,1.1-1.3,2.2-2.3,4.6c-0.8,1.9-1.2,3.4-1.4,4c-1.5,5.1-3.2,7.4-5,12.5c-1.7,4.9-0.7,4.4-2.6,11.4c-1.1,3.8-1.6,4.7-4.4,12.7
		c-3.1,8.7-2.4,7.6-4.3,12.5c-0.7,1.7-3.1,8.3-7,16.2c-1.8,3.7-3.3,6.5-3.7,7.3c-1.2,2.3-2.2,4-3.7,6.5c-0.9,1.5-2.1,3.6-4.6,7.8
		c-3.3,5.5-3,5-3.1,5.3c-1.4,2.5-1.8,3.6-3.2,5.2C169.7,215.2,168.8,216.4,167.5,216.4z"/>
	<polygon class="st24" points="210.8,79.5 218.1,105.9 219.3,105.4 220.8,105.1 220.7,103.4 220.3,100.9 219.6,97.9 218.6,94.6 
		218.1,92.7 216.9,88.7 216.3,85.7 215.7,83.6 214.5,81 214.3,79.2 214.3,77.6 214.7,76.2 212.6,76.9 210.3,77.8 	"/>
	<path class="st22" d="M213.9,76.1c-0.9,1.1-0.6,3-0.2,4.2c0.2,0.5,0.3,0.5,0.6,1.4c0.3,0.9,0.5,1.6,0.7,2.3c0.3,1,0.2,1.1,0.5,2.4
		c0.2,0.8,0.3,1.2,0.5,1.7c0.3,1,0.5,1.2,0.8,2c0.3,0.9,0.2,1.1,0.4,2.2c0.3,1.6,0.8,2.8,1.1,3.8c0.5,1.3,0.7,1.6,0.9,2.6
		c0.1,0.4,0.1,0.7,0.2,1.4c0.1,0.6,0.2,0.9,0.4,1.6c0.3,1.1,0.7,2.3,0.9,3.4c0.2,0.8,0.2,1.1,0.5,1.3c0.5,0.3,1,0,2-0.1
		c1.4-0.2,1.6,0.2,3.8,0.2c1.8,0.1,1.7-0.2,2.9-0.1c1.1,0.1,2.1,0.4,5.1,1.9c3,1.5,2.7,1.5,4,2.1c2.8,1.2,3.6,0.8,6.6,1.9
		c1,0.3,1,0.4,5.4,2.7c5.6,2.8,5.2,2.5,7.1,3.5c3.9,2.1,3.8,2.6,6.7,4c2.8,1.3,2.9,1,6.2,2.4c3.1,1.4,5.3,2.7,8,4.3
		c1.2,0.8,2.8,1.8,6,3.9c5.7,3.7,6.2,4.2,8.4,5.5c3.4,2.1,4,2.2,7.3,4.1c7.2,4.1,6.7,5.1,13.1,8.8c3.8,2.2,4.9,2.4,10.9,6
		c2.8,1.6,4.2,2.6,5.9,3.9c2.7,2.2,4,3.8,6.2,6.3c2.4,2.7,1.5,1.4,10.3,10.3c6.2,6.3,7.2,7.4,8.2,8.8c0,0,3.5,4.8,5.1,9.5
		c0.4,1.2,0.7,2.2,0.7,2.2c0.5,1.6,0.6,2.4,1.4,5.1c0.9,2.8,3.5,10.7,4.8,10.5c0.5-0.1,0.5-1.4,0.9-3.5c0.9-4.3,2.2-5.4,4.6-10.8
		c2-4.6,2.9-8.3,3.1-9.3c0.9-3.7,1.1-6.4,1.5-10.7c0.1-1.2,0.5-5.3,0.5-10.7c0-1.7,0-6.7-0.5-13.3c-0.3-3.7-0.6-7.3-1.5-12.2
		c-0.7-3.6-1.4-6.4-2-8.7c-1.2-4.5-1.8-6.8-3.1-9.7c-1.7-4.1-3.6-6.9-5.1-9.2c-2-3-1.9-2.4-6.6-8.7c-3.8-5-4.4-5.8-6.1-7.7
		c-1.9-2-3.5-3.7-6.2-5.4c-1.3-0.9-3.2-1.8-7.1-3.6c-3.4-1.5-4.8-2-7-3.6c-0.8-0.6-1.3-1-2.5-1.8c-0.7-0.5-2.2-1.4-4.5-2.6
		c-2-1-5.3-2.7-9.9-4c-0.9-0.3-2.3-0.6-9.9-2.1c-2-0.4-3.3-0.6-5.6-1.1c-2.3-0.5-4.5-1-5.6-1.3c-3.2-0.8-3-0.8-4.5-1.2
		c-1.3-0.3-1.7-0.3-5.2-0.9c-1.4-0.2-2-0.4-3.1-0.6c-5.3-1-7.9-1.4-9.7-1.7c-2.9-0.4-5.3-0.4-9.9-0.5c-2.1,0-5.2-0.1-9.3,0.1
		c-3.8,0.2-6.6,0.5-8.8,0.7c-4.3,0.5-7.6,1-8.5,1.2c-2.6,0.4-4.8,0.9-9.2,1.8c-5.4,1.1-4.4,1-5.6,1.2c-1.4,0.2-2.7,0.6-4,0.9
		C214.9,75.6,214.4,75.6,213.9,76.1z"/>
</g>
<g id="neck">
	<path class="st25" d="M205.1,441.6c1.4-1.1,3.4-2.7,5.5-4.7c2-1.9,5-4.6,7.9-8.4c2.9-3.7,4.3-6.8,6.4-11.1c0.9-1.8,2.3-5.5,5.3-13
		c0,0,4.4-11.1,5.2-16.3c0.3-1.7,0.5-3.4,0.5-3.4c0.1-1.1,0.2-2,0.3-3.1c0-0.3,0.2-2,0.3-3.2c0.2-2.7,0.1-3,0.2-5.6
		c0.3-4.3,0.6-6,0.6-8c0-0.3,0,0,0-2.3c-0.1-3.7-0.1-5.5-0.1-6.2c0.1-3.8,0.8-7.3,0.8-7.3l0,0c0,0,1.4,0.9,2.8,1.7
		c2.3,1.5,2.6,1.7,3.8,2.4c0,0,1,0.6,1.8,1.1c6,3.5,11.1,5.3,11.1,5.3c4.3,1.5,7.8,2,9.9,2.2c2.7,0.3,10,0.9,18.9-1.5
		c2.6-0.7,4.7-1.3,7-2.3c0.8-0.3,1.3-0.6,2.7-1.4c5.5-2.9,8.3-4.4,9.3-5.1c4.1-3.1,5.4-6,6.5-5.4c0.6,0.3,0.7,1.6,0.8,4.2
		c0.2,2.9-0.2,2.6,0,5.1c0.1,1.8-0.1,3-0.1,5.7c0,0-0.1,3.9,0.2,8.6c0.3,4.5,1.5,9.4,3.9,19.1c1.9,7.6,2.9,11.4,4.4,15.9
		c1.6,4.7,3,7.7,3.8,12.9c0.6,3.9,0.7,7.5,0.7,8.2c0,3.1-0.2,3.1-0.2,6.2c-0.1,5.4,0.7,10.2,1.3,14.3c0.1,0.5,0.3,1.8,0.5,3.7
		c0,0.4,0.2,1.9,0.3,3.4c0.1,1.5,0.2,3.2,0.2,6.4c0,5.1-0.2,5.1-0.2,8.7c0,0.8,0.1,2.5,0.2,5.8c0.1,3.4,0.3,5.6,0.4,7.2
		c0.1,0.9,0.1,1.7,0.1,2.3c-13.6,16-27.3,32-40.9,48l-25.1-17.7l-29.7-31.6l-19.5-27C210.3,450.9,207.7,446.2,205.1,441.6z"/>
</g>
</svg>
